<?xml version="1.0" encoding="iso-8859-1"?>
<!-- Generator: Adobe Illustrator 19.0.0, SVG Export Plug-In . SVG Version: 6.00 Build 0)  -->
<svg version="1.1" id="Capa_1" xmlns="http://www.w3.org/2000/svg" xmlns:xlink="http://www.w3.org/1999/xlink" x="0px" y="0px"
	 viewBox="0 0 512 512" style="enable-background:new 0 0 512 512;" xml:space="preserve">
<path style="fill:#FFFFFF;" d="M407,512H105C47.103,512,0,464.897,0,407V105C0,47.103,47.103,0,105,0h302
	c57.897,0,105,47.103,105,105v302C512,464.897,464.897,512,407,512z"/>
<path style="fill:#F2F2F2;" d="M407,0H256v512h151c57.897,0,105-47.103,105-105V105C512,47.103,464.897,0,407,0z"/>
<g>
	<path style="fill:#57565C;" d="M408.737,233.107L375.52,263.21l-29.689-68.984l-89.287,174.563l-52.245-126.592l-37.561,70.754
		l-36.74-36.741L104.781,312H0v95c0,57.897,47.103,105,105,105h302c57.897,0,105-47.103,105-105V300h-68.056L408.737,233.107z"/>
	<path style="fill:#57565C;" d="M407,0H105C47.103,0,0,47.103,0,105v177h89.219l36.784-52.21l33.26,33.259l48.439-91.246
		l51.755,125.408l88.713-173.438l38.311,89.016l30.782-27.897L462.056,270H512V105C512,47.103,464.897,0,407,0z"/>
</g>
<g>
	<path style="fill:#3E3D42;" d="M408.737,233.107L375.52,263.21l-29.689-68.984l-89.287,174.563L256,367.473V512h151
		c57.897,0,105-47.103,105-105V300h-68.056L408.737,233.107z"/>
	<path style="fill:#3E3D42;" d="M407,0H256v288.835l3.457,8.377l88.713-173.438l38.311,89.016l30.782-27.897L462.056,270H512V105
		C512,47.103,464.897,0,407,0z"/>
</g>
<rect x="332" style="fill:#00AAF0;" width="30" height="512"/>
<circle style="fill:#00C3FF;" cx="347" cy="144" r="30"/>
<g>
</g>
<g>
</g>
<g>
</g>
<g>
</g>
<g>
</g>
<g>
</g>
<g>
</g>
<g>
</g>
<g>
</g>
<g>
</g>
<g>
</g>
<g>
</g>
<g>
</g>
<g>
</g>
<g>
</g>
</svg>
