<?xml version="1.0"?>
<svg xmlns="http://www.w3.org/2000/svg" xmlns:xlink="http://www.w3.org/1999/xlink" version="1.1" id="Capa_1" x="0px" y="0px" width="512px" height="512px" viewBox="0 0 499.42 499.42" style="enable-background:new 0 0 499.42 499.42;" xml:space="preserve" class=""><g><g>
	<path d="M277.087,180.337c12.604-13.077,19.558-30.285,19.558-48.467c0-38.499-31.31-69.81-69.809-69.81   c-38.496,0-69.809,31.311-69.809,69.81c0,18.176,6.945,35.39,19.564,48.467c2.226,2.313,2.17,5.998-0.143,8.229   c-1.13,1.087-2.582,1.635-4.034,1.635c-1.528,0-3.042-0.6-4.183-1.784c-14.724-15.256-22.834-35.342-22.834-56.547   c0-44.914,36.532-81.452,81.452-81.452c44.917,0,81.452,36.538,81.452,81.452c0,21.205-8.104,41.291-22.828,56.547   c-2.223,2.32-5.9,2.375-8.227,0.149C274.919,186.328,274.846,182.65,277.087,180.337z M140.803,224.185   c2.292-2.247,2.338-5.931,0.091-8.232c-22.116-22.597-34.3-52.458-34.3-84.082c0-66.296,53.938-120.236,120.236-120.236   c66.295,0,120.234,53.94,120.234,120.236c0,31.63-12.179,61.491-34.301,84.088c-2.247,2.296-2.21,5.979,0.092,8.227   c1.133,1.108,2.606,1.662,4.067,1.662c1.504,0,3.014-0.584,4.159-1.744c24.265-24.786,37.618-57.546,37.618-92.232   C358.7,59.153,299.543,0,226.83,0C154.114,0,94.96,59.153,94.96,131.87c0,34.687,13.363,67.44,37.616,92.227   C134.823,226.389,138.513,226.429,140.803,224.185z M383.654,473.81l-6.681,21.495c-0.755,2.447-3.032,4.115-5.596,4.115   c-0.006,0-0.006,0-0.006,0l-124.414-0.182c-2.451,0-4.628-1.522-5.486-3.807c-0.862-2.283-0.213-4.858,1.632-6.467   c-0.018,0,0.993-1.113,0.911-3.111c-0.085-1.961-1.315-6.187-8.574-12.403c-2.268-2.149-51.055-48.445-71.843-84.657   c-5.742-8.08-48.241-69.216-38.06-96.1c2.408-6.369,7.419-10.644,14.529-12.379c3.206-1.139,6.479-1.717,9.733-1.717   c18.669,0,32.516,18.328,42.624,31.706c2.226,2.959,5.033,6.667,7.134,8.976c0.91-4.074,1.888-13.208,1.79-33.686   c0-0.207,0.006-0.426,0.03-0.646c0.037-0.305,3.105-30.957,3.285-128.828c-1.184-0.244-2.338-0.761-3.203-1.735   c-5.514-6.211-8.549-14.203-8.549-22.521c0-18.712,15.22-33.938,33.932-33.938s33.932,15.226,33.932,33.938   c0,7.389-2.502,14.428-6.901,20.283c0.124,1.184,0.249,2.415,0.387,3.742c1.142,11.305,2.368,26.101,3.659,41.763   c1.692,20.584,3.897,47.246,5.614,59.542c5.078-2.594,12.306-5.352,20.137-5.352c8.616,0,20.222,3.349,28.832,18.371   c4.007-1.529,9.768-3.179,16.1-3.179c10.218,0,23.748,4.183,31.664,23.479c7.185,1.279,23.047,5.389,33.381,17.756   c7.246,8.665,10.363,19.547,9.292,32.37C403.838,348.684,411.061,420.968,383.654,473.81z M204.532,131.87   c0,2.362,0.438,4.664,1.16,6.872c3.574-21.062,12.607-25.815,19.966-25.815c9.931,0,19.129,9.252,23.352,17.747   c-0.643-11.731-10.291-21.103-22.18-21.103C214.527,109.565,204.532,119.573,204.532,131.87z M391.204,341.438   c-0.049-0.42-0.049-0.84-0.012-1.261c0.92-9.84-1.267-18.023-6.516-24.332c-10.235-12.331-29.015-14.157-29.21-14.176   c-2.302-0.213-4.286-1.747-5.035-3.927c-4.402-12.781-11.552-18.986-21.854-18.986c-8.378,0-15.795,4.158-15.868,4.201   c-1.425,0.816-3.16,0.999-4.725,0.481c-1.571-0.512-2.862-1.656-3.532-3.167c-5.042-11.24-11.85-16.708-20.807-16.708   c-10.382,0-20.21,7.331-20.308,7.41c-1.491,1.145-3.446,1.504-5.236,0.968c-5.413-1.607-5.985-1.777-11.886-73.328   c-1.34-16.146-2.887-34.924-4.196-46.829c-0.076-0.387-0.137-0.749-0.131-1.136c-0.53-4.683-1.017-8.205-1.428-9.819   c-0.38-0.587-0.648-1.248-0.804-1.951c-1.212-5.624-8.948-14.237-14.018-14.237c-3.318,0-7.721,5.913-9.28,22.56   c-0.006,101.366-2.947,134.848-3.321,138.647c0.131,31.943-2.128,40.511-6.086,44.487c-1.677,1.687-3.766,2.575-6.049,2.575   c-6.129,0-10.799-6.18-17.869-15.533c-8.625-11.423-20.429-27.048-33.265-27.048c-1.985,0-4.022,0.378-6.038,1.12   c-0.225,0.08-0.459,0.146-0.697,0.207c-4.472,1.035-5.849,3.312-6.567,5.188c-6.092,16.1,19.342,60.916,36.809,85.376   c0.119,0.152,0.216,0.322,0.317,0.499c19.848,34.727,69.182,81.552,69.672,82.015c8.162,6.99,12.415,14.213,12.452,21.275   c0,0.524-0.024,1.023-0.061,1.511l111.386,0.164l5.56-17.865c0.104-0.335,0.23-0.664,0.396-0.98   C400.045,417.26,391.307,342.192,391.204,341.438z" data-original="#000000" class="active-path" data-old_color="#000000" fill="#293C96"/>
</g></g> </svg>
